<?xml version="1.0" standalone="no"?>
<!DOCTYPE svg PUBLIC "-//W3C//DTD SVG 20010904//EN"
 "http://www.w3.org/TR/2001/REC-SVG-20010904/DTD/svg10.dtd">
<svg version="1.0" xmlns="http://www.w3.org/2000/svg"
 width="96.000000pt" height="96.000000pt" viewBox="0 0 96.000000 96.000000"
 preserveAspectRatio="xMidYMid meet">
<metadata>
Created by potrace 1.14, written by Peter Selinger 2001-2017
</metadata>
<g transform="translate(0.000000,96.000000) scale(0.100000,-0.100000)"
fill="#000000" stroke="none">
<path d="M420 877 c0 -50 -36 -123 -91 -182 -83 -88 -103 -132 -102 -221 1
-41 -3 -77 -9 -80 -5 -3 -21 5 -35 17 l-26 24 6 -56 c15 -152 121 -248 285
-257 77 -4 87 -2 147 27 76 38 127 97 150 174 18 60 21 133 4 105 -20 -35 -26
-16 -25 75 1 104 -11 138 -74 209 l-37 42 -7 -51 c-3 -28 -13 -56 -21 -63 -18
-15 -20 -9 -30 65 -13 96 -56 165 -117 188 -14 5 -18 1 -18 -16z"/>
</g>
</svg>
